<svg width="16" height="17" viewBox="0 0 16 17" fill="none" xmlns="http://www.w3.org/2000/svg">
<g clip-path="url(#clip0_62_9765)">
<path d="M12.225 2.33109H10.3V1.88076C10.3 1.08607 9.70005 0.450317 8.95005 0.450317H7.02505C6.27505 0.450317 5.67505 1.08607 5.67505 1.88076V2.33109H3.75005C3.02505 2.33109 2.42505 2.96684 2.42505 3.73505V4.52974C2.42505 5.11251 2.75005 5.58933 3.22505 5.80125L3.62505 14.5694C3.67505 15.6554 4.52505 16.5031 5.55005 16.5031H10.4C11.425 16.5031 12.275 15.6554 12.325 14.5694L12.75 5.77476C13.225 5.56284 13.55 5.05954 13.55 4.50325V3.70856C13.55 2.96684 12.95 2.33109 12.225 2.33109ZM6.82505 1.88076C6.82505 1.74832 6.92505 1.64236 7.05005 1.64236H8.97505C9.10005 1.64236 9.20005 1.74832 9.20005 1.88076V2.33109H6.85005V1.88076H6.82505ZM3.57505 3.73505C3.57505 3.62909 3.65005 3.52313 3.77505 3.52313H12.225C12.325 3.52313 12.425 3.6026 12.425 3.73505V4.52974C12.425 4.6357 12.35 4.74166 12.225 4.74166H3.77505C3.67505 4.74166 3.57505 4.66219 3.57505 4.52974V3.73505ZM10.425 15.3111H5.57505C5.15005 15.3111 4.80005 14.9667 4.77505 14.4899L4.40005 5.90721H11.625L11.25 14.4899C11.2 14.9402 10.85 15.3111 10.425 15.3111Z" fill="#64748B"/>
<path d="M8.00005 8.58264C7.70005 8.58264 7.42505 8.84754 7.42505 9.19191V12.5561C7.42505 12.874 7.67505 13.1654 8.00005 13.1654C8.30005 13.1654 8.57505 12.9005 8.57505 12.5561V9.19191C8.57505 8.84754 8.30005 8.58264 8.00005 8.58264Z" fill="#64748B"/>
<path d="M9.99994 9.11248C9.67494 9.08599 9.42494 9.3244 9.39994 9.66877L9.24994 11.9999C9.22494 12.3177 9.44994 12.6091 9.77494 12.6356C9.79994 12.6356 9.79994 12.6356 9.82494 12.6356C10.1249 12.6356 10.3749 12.3972 10.3749 12.0793L10.5249 9.74823C10.5249 9.40387 10.2999 9.13897 9.99994 9.11248Z" fill="#64748B"/>
<path d="M5.97497 9.11248C5.67497 9.13897 5.42497 9.43036 5.44997 9.74823L5.62497 12.0793C5.64997 12.3972 5.89997 12.6356 6.17497 12.6356C6.19997 12.6356 6.19997 12.6356 6.22497 12.6356C6.52497 12.6091 6.77497 12.3177 6.74997 11.9999L6.57497 9.66877C6.57497 9.3244 6.29997 9.08599 5.97497 9.11248Z" fill="#64748B"/>
</g>
<defs>
<clipPath id="clip0_62_9765">
<rect width="16" height="16.9534" fill="white"/>
</clipPath>
</defs>
</svg>
