<svg width="16" height="17" viewBox="0 0 16 17" fill="none" xmlns="http://www.w3.org/2000/svg">
<g clip-path="url(#clip0_62_9787)">
<path d="M15.55 3.15231C15.55 2.94039 15.475 2.72847 15.325 2.56953C15.025 2.25166 14.725 1.93378 14.45 1.6159C14.175 1.32451 13.925 1.03313 13.65 0.768229C13.525 0.60929 13.375 0.503331 13.175 0.476842C12.95 0.450352 12.75 0.503331 12.575 0.66227L10.875 2.46357H2.02495C1.17495 2.46357 0.449951 3.20529 0.449951 4.13243V14.8343C0.449951 15.7349 1.14995 16.5031 2.02495 16.5031H12.15C13 16.5031 13.725 15.7614 13.725 14.8343V5.43043L15.35 3.70859C15.475 3.54965 15.55 3.36423 15.55 3.15231ZM8.19995 9.53634C8.17495 9.56283 8.17495 9.56283 8.14995 9.56283L6.34995 10.1986L6.94995 8.29132C6.94995 8.26483 6.97495 8.26483 6.97495 8.23834L11.475 3.47018L12.725 4.76818L8.19995 9.53634ZM12.575 14.8343C12.575 15.0992 12.375 15.3111 12.125 15.3111H2.02495C1.77495 15.3111 1.57495 15.0992 1.57495 14.8343V4.10594C1.57495 3.84104 1.77495 3.62912 2.02495 3.62912H9.72495L6.17495 7.41716C6.04995 7.54961 5.92495 7.73504 5.87495 7.94695L4.94995 10.9138C4.87495 11.1257 4.92495 11.3112 5.02495 11.4966C5.09995 11.6025 5.24995 11.7615 5.52495 11.7615H5.62495L8.49995 10.7549C8.67495 10.7019 8.84995 10.5694 8.97495 10.437L12.575 6.62247V14.8343ZM13.5 3.947L12.25 2.649L13.025 1.82782C13.225 2.03974 14.05 2.9139 14.25 3.15231L13.5 3.947Z" fill="#64748B"/>
</g>
<defs>
<clipPath id="clip0_62_9787">
<rect width="16" height="16.9534" fill="white"/>
</clipPath>
</defs>
</svg>
