<svg width="20" height="20" viewBox="0 0 20 20" fill="none" xmlns="http://www.w3.org/2000/svg">
<g clip-path="url(#clip0_60_9740)">
<path d="M18.75 9.3125H10.7187V1.25C10.7187 0.875 10.4062 0.53125 10 0.53125C9.625 0.53125 9.28125 0.84375 9.28125 1.25V9.3125H1.25C0.875 9.3125 0.53125 9.625 0.53125 10.0312C0.53125 10.4062 0.84375 10.75 1.25 10.75H9.3125V18.75C9.3125 19.125 9.625 19.4687 10.0312 19.4687C10.4062 19.4687 10.75 19.1562 10.75 18.75V10.7187H18.75C19.125 10.7187 19.4687 10.4062 19.4687 10C19.4687 9.625 19.125 9.3125 18.75 9.3125Z" fill="white"/>
</g>
<defs>
<clipPath id="clip0_60_9740">
<rect width="20" height="20" fill="white"/>
</clipPath>
</defs>
</svg>
